<mxfile host="app.diagrams.net" modified="2024-04-16T02:22:41.609Z" agent="Mozilla/5.0 (Windows NT 10.0; Win64; x64) AppleWebKit/537.36 (KHTML, like Gecko) Chrome/123.0.0.0 Safari/537.36" etag="gMWstM9QAqXx5t9BdX9Q" version="24.2.2" type="github">
  <diagram name="第 1 页" id="EqqXXb2V_suximrAiZp5">
    <mxGraphModel dx="977" dy="573" grid="0" gridSize="10" guides="1" tooltips="1" connect="1" arrows="1" fold="1" page="1" pageScale="1" pageWidth="827" pageHeight="1169" math="0" shadow="0">
      <root>
        <mxCell id="0" />
        <mxCell id="1" parent="0" />
        <mxCell id="A6ibbxLMWMizJoM4U2Ka-10" value="" style="rounded=1;whiteSpace=wrap;html=1;fillColor=#f5f5f5;fontColor=#333333;strokeColor=#666666;" vertex="1" parent="1">
          <mxGeometry x="137" y="46" width="583" height="416" as="geometry" />
        </mxCell>
        <mxCell id="A6ibbxLMWMizJoM4U2Ka-1" value="应用层" style="rounded=1;whiteSpace=wrap;html=1;fillColor=#ffe6cc;strokeColor=#d79b00;fontFamily=Comic Sans MS;" vertex="1" parent="1">
          <mxGeometry x="209" y="130" width="135" height="40" as="geometry" />
        </mxCell>
        <mxCell id="A6ibbxLMWMizJoM4U2Ka-2" value="传输层" style="rounded=1;whiteSpace=wrap;html=1;fillColor=#fff2cc;strokeColor=#d6b656;fontFamily=Comic Sans MS;" vertex="1" parent="1">
          <mxGeometry x="209" y="215" width="135" height="40" as="geometry" />
        </mxCell>
        <mxCell id="A6ibbxLMWMizJoM4U2Ka-3" value="网络层" style="rounded=1;whiteSpace=wrap;html=1;fillColor=#f8cecc;strokeColor=#b85450;" vertex="1" parent="1">
          <mxGeometry x="209" y="298" width="135" height="40" as="geometry" />
        </mxCell>
        <mxCell id="A6ibbxLMWMizJoM4U2Ka-4" value="网络接口层" style="rounded=1;whiteSpace=wrap;html=1;fillColor=#e1d5e7;strokeColor=#9673a6;" vertex="1" parent="1">
          <mxGeometry x="209" y="385" width="135" height="40" as="geometry" />
        </mxCell>
        <mxCell id="A6ibbxLMWMizJoM4U2Ka-5" value="负责向用户提供一组应用程序如，HTTP、DNS、FTP" style="rounded=1;whiteSpace=wrap;html=1;fillColor=#ffe6cc;strokeColor=#d79b00;fontFamily=Comic Sans MS;" vertex="1" parent="1">
          <mxGeometry x="438" y="130" width="201" height="40" as="geometry" />
        </mxCell>
        <mxCell id="A6ibbxLMWMizJoM4U2Ka-6" value="负责端到端的通信如TCP、UDP" style="rounded=1;whiteSpace=wrap;html=1;fillColor=#fff2cc;strokeColor=#d6b656;fontFamily=Comic Sans MS;" vertex="1" parent="1">
          <mxGeometry x="440" y="215" width="200" height="40" as="geometry" />
        </mxCell>
        <mxCell id="A6ibbxLMWMizJoM4U2Ka-7" value="负责网络包的封装、分片、路由、转发如：IP、ICMP" style="rounded=1;whiteSpace=wrap;html=1;fillColor=#f8cecc;strokeColor=#b85450;fontFamily=Comic Sans MS;" vertex="1" parent="1">
          <mxGeometry x="440" y="300" width="199" height="40" as="geometry" />
        </mxCell>
        <mxCell id="A6ibbxLMWMizJoM4U2Ka-9" value="负责数据包在物理网内的传输，包括帧封装、MAC寻址、差错检测" style="rounded=1;whiteSpace=wrap;html=1;fillColor=#e1d5e7;strokeColor=#9673a6;fontFamily=Comic Sans MS;" vertex="1" parent="1">
          <mxGeometry x="438" y="385" width="203" height="40" as="geometry" />
        </mxCell>
        <mxCell id="A6ibbxLMWMizJoM4U2Ka-11" value="TCP/IP Four Layer" style="text;html=1;align=center;verticalAlign=middle;whiteSpace=wrap;rounded=0;fontFamily=Comic Sans MS;" vertex="1" parent="1">
          <mxGeometry x="312" y="66" width="183" height="30" as="geometry" />
        </mxCell>
      </root>
    </mxGraphModel>
  </diagram>
</mxfile>
